<?xml version="1.0" encoding="UTF-8"?>
<svg xmlns="http://www.w3.org/2000/svg" viewBox="0 0 100 100" width="100" height="100">
  <defs>
    <linearGradient id="faviconGradient" x1="0%" y1="0%" x2="100%" y2="100%">
      <stop offset="0%" style="stop-color:#8A2BE2;stop-opacity:1" /> <!-- BlueViolet -->
      <stop offset="100%" style="stop-color:#9370DB;stop-opacity:1" /> <!-- MediumPurple -->
    </linearGradient>
  </defs>
  
  <!-- Background square with rounded corners -->
  <rect x="5" y="5" width="90" height="90" rx="15" fill="url(#faviconGradient)" stroke="#FFD700" stroke-width="3" />
  
  <!-- Simplified C# logo -->
  <g transform="translate(20, 28) scale(0.6)">
    <!-- C -->
    <path d="M25,10 C15,10 10,20 10,35 C10,50 15,60 25,60 C30,60 35,58 40,53 L35,48 C32,52 28,54 25,54 C20,54 17,48 17,35 C17,22 20,16 25,16 C30,16 35,20 40,27 L45,21 C40,14 33,10 25,10 Z" fill="white" />
    
    <!-- # -->
    <g fill="white">
      <rect x="65" y="20" width="5" height="40" rx="2" />
      <rect x="80" y="20" width="5" height="40" rx="2" />
      <rect x="60" y="30" width="30" height="5" rx="2" />
      <rect x="60" y="45" width="30" height="5" rx="2" />
    </g>
  </g>
  
  <!-- CR text (for CsRefactor) -->
  <text x="50" y="86" text-anchor="middle" font-family="Arial, sans-serif" font-size="12" font-weight="bold" fill="#FFD700">CR</text>
</svg>