<?xml version="1.0" encoding="UTF-8"?>
<svg width="512px" height="512px" viewBox="0 0 512 512" xmlns="http://www.w3.org/2000/svg">
  <defs>
    <linearGradient id="csharpGradient" x1="0%" y1="0%" x2="100%" y2="100%">
      <stop offset="0%" style="stop-color:#9333EA;stop-opacity:1" />
      <stop offset="100%" style="stop-color:#6366F1;stop-opacity:1" />
    </linearGradient>
  </defs>
  <rect x="56" y="56" width="400" height="400" rx="60" fill="url(#csharpGradient)" />
  <g fill="white">
    <path d="M194 190c-8.5 0-15.4 1.6-20.6 4.8-5.2 3.2-9 7.8-11.4 13.8-2.4 6-3.6 13-3.6 21 0 8 1.2 15 3.6 21 2.4 6 6.2 10.7 11.4 13.9 5.2 3.2 12 4.8 20.6 4.8 5.3 0 10-0.8 14.1-2.3 4.1-1.5 7.6-3.7 10.5-6.5 2.9-2.8 5.1-6.1 6.6-9.9l-19.2-7.7c-0.9 2.1-2.1 3.7-3.6 4.9-1.5 1.2-3.4 1.8-5.7 1.8-3.4 0-6-1.3-7.8-3.8-1.8-2.5-2.7-6.2-2.7-11.1h40v-7.2c0-7.9-1.2-14.5-3.6-19.8-2.4-5.3-6-9.3-10.8-12-4.8-2.6-10.8-3.9-18-3.9zm135 0c-8.5 0-15.4 1.6-20.6 4.8-5.2 3.2-9 7.8-11.4 13.8-2.4 6-3.6 13-3.6 21 0 8 1.2 15 3.6 21 2.4 6 6.2 10.7 11.4 13.9 5.2 3.2 12 4.8 20.6 4.8 5.3 0 10-0.8 14.1-2.3 4.1-1.5 7.6-3.7 10.5-6.5 2.9-2.8 5.1-6.1 6.6-9.9l-19.2-7.7c-0.9 2.1-2.1 3.7-3.6 4.9-1.5 1.2-3.4 1.8-5.7 1.8-3.4 0-6-1.3-7.8-3.8-1.8-2.5-2.7-6.2-2.7-11.1h40v-7.2c0-7.9-1.2-14.5-3.6-19.8-2.4-5.3-6-9.3-10.8-12-4.8-2.6-10.8-3.9-18-3.9zM280 192v96h20v-96h-20zm49 0v96h20v-38h18c9.9 0 17.5-2.2 22.7-6.6 5.2-4.4 7.8-10.7 7.8-18.9 0-8.2-2.6-14.5-7.8-18.9-5.2-4.4-12.8-6.6-22.7-6.6H329zm-135 16c3.4 0 6 1.3 7.8 3.8 1.8 2.5 2.7 6.2 2.7 11.1h-20.9c0-4.9 0.9-8.6 2.7-11.1 1.8-2.5 4.4-3.8 7.8-3.8zm135 0c3.4 0 6 1.3 7.8 3.8 1.8 2.5 2.7 6.2 2.7 11.1h-20.9c0-4.9 0.9-8.6 2.7-11.1 1.8-2.5 4.4-3.8 7.8-3.8zm13 0h16c3.2 0 5.5 0.7 7 2 1.5 1.3 2.3 3.3 2.3 6 0 2.7-0.8 4.7-2.3 6-1.5 1.3-3.8 2-7 2h-16v-16z" />
    <path d="M375 225v15h15v-15h-15zm25 0v15h15v-15h-15zm25 0v15h15v-15h-15zm25 0v15h15v-15h-15z" />
  </g>
</svg> 