<?xml version="1.0" encoding="UTF-8"?>
<svg width="512px" height="512px" viewBox="0 0 512 512" xmlns="http://www.w3.org/2000/svg">
  <defs>
    <linearGradient id="csharpGradient" x1="0%" y1="0%" x2="100%" y2="100%">
      <stop offset="0%" style="stop-color:#8A2BE2;stop-opacity:1" />
      <stop offset="100%" style="stop-color:#9370DB;stop-opacity:1" />
    </linearGradient>
  </defs>
  <rect x="0" y="0" width="512" height="512" rx="80" fill="url(#csharpGradient)" />
  <g fill="white">
    <path d="M130,210 C112,210 97,216 86,228 C75,240 70,256 70,276 C70,296 75,312 86,324 C97,336 112,342 130,342 C140,342 149,340 157,336 C165,332 172,326 178,318 L158,298 C154,303 150,307 146,309 C142,311 137,312 131,312 C122,312 115,309 110,303 C105,297 102,288 102,276 C102,264 105,255 110,249 C115,243 122,240 131,240 C142,240 152,245 160,256 L180,235 C173,226 166,220 157,216 C148,212 139,210 130,210 Z" />
    <path d="M290,210 L290,240 L262,240 L262,260 L290,260 L290,290 L262,290 L262,310 L290,310 L290,340 L232,340 L232,210 L290,210 Z" />
    <path d="M324,210 L324,240 L358,240 L358,340 L388,340 L388,240 L422,240 L422,210 L324,210 Z" />
  </g>
  <g fill="white">
    <rect x="300" y="260" width="15" height="50" rx="2" />
    <rect x="340" y="260" width="15" height="50" rx="2" />
    <rect x="285" y="275" width="85" height="15" rx="2" />
    <rect x="285" y="305" width="85" height="15" rx="2" />
  </g>
</svg> 