<svg xmlns="http://www.w3.org/2000/svg" viewBoxSize="300" data-root-id="3015116645460" id="Layer_1" version="1.1" viewBox="95 250 370 320" height="85.2734375" width="115" y="1" x="1" preserveAspectRatio="xMinYMin" zoom="1" editorType="buyer" data-layer-role="icon" style="/* background-color: azure; *//* border: solid; */">
    <path class="st5" d="M197.95,328.9l.02-.05.37-.23c17.28-39.02,49.46-60.31,90.9-67.13,33.6-5.53,69.94-1.19,102.89,6.52,8.07,1.89,23.67,5.29,25.17,15.32,1.41,9.41-8.79,13.56-16.01,15.73-1.93.58-3.93,1.12-5.98,1.62,2.37,1.21,4.71,2.44,7.01,3.69,11.37,6.17,12.29,17.19,3.05,25.73-.17.16-.34.31-.52.47,1.32.92,2.63,1.85,3.93,2.78,9.72,6.94,19.17,14.37,28.13,22.27,20.82,18.33,44.42,43.9,51.27,71.32,5.14,20.57,4.96,48.42-8.38,66.1-5.6,7.42-13.72,12.65-23.32,11.84-.06,0-.12-.01-.18-.02.47,10.11.7,19.98.76,29.46v.05s-299.87,0-299.87,0v-.34c.28-6.35.75-12.75,1.26-19.09-14.9-2.66-27.22-11.8-33.81-28.5-9.75-24.73-2.82-55.53,8.27-78.64,10.82-22.55,25.53-43.42,43.45-60.89,6.19-6.03,14.02-12.98,21.57-17.99h0Z" name="Layer %{number}" zoom="1" data-layer-id="8241292545460"/>
    <path class="st2" d="M391.74,331.72s22.47,115.2,46.9,151.2c24.43,36,54-4.29,41.57-54-12.43-49.72-88.47-97.2-88.47-97.2h0Z" name="Layer %{number}" zoom="1" data-layer-id="9986264145460" style="fill: rgb(187, 139, 56);"/>
    <path class="st4" d="M448.84,534.36H165.44s4.93-117.8,39.43-200.1c34.5-82.31,132.24-70.66,185.38-58.23,53.14,12.43-22.71,21-22.71,21,0,0,15.86,6.43,30.86,14.57s-8.57,18.86-8.57,18.86c0,0,57.9,31.57,59.01,203.9h0Z" name="Layer %{number}" zoom="1" data-layer-id="9245537145460" style="fill: rgb(255, 255, 255);"/>
    <path class="st2" d="M204.87,334.25s26.37-16.37,68.12-8.92c41.75,7.45,56.24,43.09,51.6,69.82-4.64,26.72-29.98,61.76-56.08,74.44-26.09,12.67-42.87-1.86-59.27-22.74-16.4-20.87-23.41-53.56-23.41-53.56l19.04-59.04h0Z" name="Layer %{number}" zoom="1" data-layer-id="4761323645460" style="fill: rgb(187, 139, 56);"/>
    <path class="st0" d="M218.52,376.53s28.53-7.97,57.63-5.93c29.09,2.04,39.84,14.45,55.03,13.34,15.19-1.11,30.5-10.29,55.29-11.27,24.8-.98,47.5,5.6,47.5,5.6v11.63l-4.79,2.71s5.83,42.75-28.64,46.81c-34.47,4.06-51.84-14.99-57.86-30.96-6.02-15.97-13.87-17.23-18.07-13.31-4.2,3.92-17.51,39.93-36.29,42.87-18.77,2.94-50.84,4.54-57.9-21.6-7.06-26.14-10.1-28.25-12.17-28.86-2.07-.61-3.41-9.5.29-11.03h0Z" name="Layer %{number}" zoom="1" data-layer-id="8730066745460" style="fill: rgb(26, 26, 26);"/>
    <path class="st3" d="M385.2,378.52s-26.7.64-33.8,13.67c-7.1,13.03,6.36,31.57,13.14,28.18s.32-13.03-3.92-19.49c-4.24-6.46-1.38-17.16,24.58-22.35h0Z" name="Layer %{number}" zoom="1" data-layer-id="3274548445460" style="fill: rgb(255, 255, 255);"/>
    <path class="st3" d="M262.04,377.23s-16.51-.89-22.68,15.5c-6.17,16.39,3.5,29,9.81,29.84,6.31.84,9.53-13.17,1.68-21.02s-5.88-14.99,2.94-17.65c8.83-2.66,24.24-2.8,24.24-2.8l-16-3.87h0Z" name="Layer %{number}" zoom="1" data-layer-id="0320537345460" style="fill: rgb(255, 255, 255);"/>
    <path class="st0" d="M325.08,497.06s15.88,2.73,28.22-7.22c12.34-9.95,8.19-23.83,5.36-26.06-2.84-2.23-.73,12.18-8.6,18.44-7.87,6.25-18.48,5.09-18.48,5.09v-20.66s12.9-7.21,18.67-13.35c17.66-18.83-67.99-18.83-50.32,0,5.76,6.15,18.67,13.35,18.67,13.35v20.66s-10.61,1.17-18.48-5.09c-7.87-6.25-5.76-20.66-8.6-18.44-2.84,2.23-6.99,16.11,5.36,26.06,12.34,9.95,28.22,7.22,28.22,7.22h0Z" name="Layer %{number}" zoom="1" data-layer-id="6957199645460" style="fill: rgb(26, 26, 26);"/>
    <path class="st1" d="M204.87,334.25s-38.81,23.52-64.53,77.09c-25.72,53.57-9.86,107.15,42.43,94.29,52.29-12.86,64.72-135.43,22.1-171.38h0Z" name="Layer %{number}" zoom="1" data-layer-id="4069290245460" style="fill: rgb(136, 102, 41);"/>
    
</svg>